<svg width="32" height="32" viewBox="0 0 32 32" fill="none" xmlns="http://www.w3.org/2000/svg">
<path d="M14.3209 1.0086C14.4921 0.701716 14.7373 0.447084 15.032 0.270109C15.3267 0.093133 15.6607 0 16.0006 0C16.3405 0 16.6745 0.093133 16.9692 0.270109C17.2639 0.447084 17.5091 0.701716 17.6802 1.0086L22.0271 8.8059L30.4688 10.717C30.8008 10.7924 31.1082 10.9575 31.3602 11.1957C31.6122 11.4339 31.8 11.737 31.905 12.0747C32.0099 12.4124 32.0283 12.773 31.9583 13.1205C31.8883 13.4679 31.7324 13.7902 31.5061 14.055L25.7518 20.7846L26.6227 29.7634C26.6571 30.1169 26.6021 30.4737 26.4632 30.7981C26.3243 31.1225 26.1065 31.4032 25.8313 31.612C25.5562 31.8209 25.2334 31.9507 24.8953 31.9885C24.5571 32.0263 24.2154 31.9707 23.9042 31.8273L16.0006 28.187L8.09696 31.8273C7.78579 31.9707 7.44406 32.0263 7.1059 31.9885C6.76774 31.9507 6.44498 31.8209 6.16984 31.612C5.89471 31.4032 5.67683 31.1225 5.53795 30.7981C5.39908 30.4737 5.34408 30.1169 5.37844 29.7634L6.24936 20.7846L0.49505 14.0566C0.268342 13.7918 0.112086 13.4694 0.0418804 13.1218C-0.0283248 12.7741 -0.0100226 12.4132 0.0949598 12.0752C0.199942 11.7373 0.387932 11.434 0.640161 11.1956C0.89239 10.9573 1.20003 10.7923 1.53238 10.717L9.97411 8.8059L14.3209 1.0086Z" fill="#FFE600"/>
</svg>
